<?xml version="1.0" standalone="no"?><!DOCTYPE svg PUBLIC "-//W3C//DTD SVG 1.1//EN" "http://www.w3.org/Graphics/SVG/1.1/DTD/svg11.dtd"><svg t="1539050336856" class="icon" style="" viewBox="0 0 1024 1024" version="1.1" xmlns="http://www.w3.org/2000/svg" p-id="3161" xmlns:xlink="http://www.w3.org/1999/xlink" width="200" height="200"><defs><style type="text/css"></style></defs><path d="M262.7 181.7c-25.4 0-46.1 20.6-46.1 46.1v583.5c0 25.4 20.6 46.1 46.1 46.1s46.1-20.6 46.1-46.1V227.8c-0.1-25.5-20.7-46.1-46.1-46.1z m245.6 0c-25.4 0-46.1 20.6-46.1 46.1v583.5c0 25.4 20.6 46.1 46.1 46.1 25.4 0 46.1-20.6 46.1-46.1V227.8c0-25.5-20.6-46.1-46.1-46.1z m245.7 0c-25.4 0-46.1 20.6-46.1 46.1v583.5c0 25.4 20.6 46.1 46.1 46.1s46.1-20.6 46.1-46.1V227.8c0-25.5-20.7-46.1-46.1-46.1z" p-id="3162"></path></svg>