<?xml version="1.0" encoding="utf-8"?>
<!-- Generator: Adobe Illustrator 20.0.0, SVG Export Plug-In . SVG Version: 6.00 Build 0)  -->
<svg version="1.1" id="图层_1" xmlns="http://www.w3.org/2000/svg" xmlns:xlink="http://www.w3.org/1999/xlink" x="0px" y="0px"
	 viewBox="0 0 1024 1024" style="enable-background:new 0 0 1024 1024;" xml:space="preserve">
<style type="text/css">
	.st0{fill-rule:evenodd;clip-rule:evenodd;}
</style>
<g>
	<g>
		<path class="st0" d="M216.6,319.9h583.5c25.4,0,46.1-20.6,46.1-46.1s-20.6-46.1-46.1-46.1H216.6c-25.4,0-46.1,20.6-46.1,46.1
			S191.2,319.9,216.6,319.9z M800.1,473.4H216.6c-25.4,0-46.1,20.6-46.1,46.1s20.6,46.1,46.1,46.1h583.5c25.4,0,46.1-20.6,46.1-46.1
			S825.5,473.4,800.1,473.4z M800.1,719.1H216.6c-25.4,0-46.1,20.6-46.1,46.1s20.6,46.1,46.1,46.1h583.5c25.4,0,46.1-20.6,46.1-46.1
			S825.5,719.1,800.1,719.1z"/>
	</g>
</g>
</svg>
