<?xml version="1.0" standalone="no"?><!DOCTYPE svg PUBLIC "-//W3C//DTD SVG 1.1//EN" "http://www.w3.org/Graphics/SVG/1.1/DTD/svg11.dtd"><svg t="1539050331587" class="icon" style="" viewBox="0 0 1024 1024" version="1.1" xmlns="http://www.w3.org/2000/svg" p-id="3038" xmlns:xlink="http://www.w3.org/1999/xlink" width="200" height="200"><defs><style type="text/css"></style></defs><path d="M216.6 319.9h583.5c25.4 0 46.1-20.6 46.1-46.1s-20.6-46.1-46.1-46.1H216.6c-25.4 0-46.1 20.6-46.1 46.1s20.7 46.1 46.1 46.1z m583.5 153.5H216.6c-25.4 0-46.1 20.6-46.1 46.1s20.6 46.1 46.1 46.1h583.5c25.4 0 46.1-20.6 46.1-46.1s-20.7-46.1-46.1-46.1z m0 245.7H216.6c-25.4 0-46.1 20.6-46.1 46.1s20.6 46.1 46.1 46.1h583.5c25.4 0 46.1-20.6 46.1-46.1s-20.7-46.1-46.1-46.1z" p-id="3039"></path></svg>