<?xml version="1.0" encoding="utf-8"?>
<!-- Generator: Adobe Illustrator 20.0.0, SVG Export Plug-In . SVG Version: 6.00 Build 0)  -->
<svg version="1.1" id="图层_1" xmlns="http://www.w3.org/2000/svg" xmlns:xlink="http://www.w3.org/1999/xlink" x="0px" y="0px"
	 viewBox="0 0 1024 1024" style="enable-background:new 0 0 1024 1024;" xml:space="preserve">
<g>
	<g>
		<path d="M850.4,257.2H725.9c1.2,8.8,2.7,17.5,2.7,26.7v78.6c21.8,8.9,37.2,30.2,37.2,55.2c0,33-26.8,59.8-59.9,59.8
			c-33.1,0-60-26.8-60-59.8c0-23.5,14-43.4,33.8-53.1v-80.6c0-9.5-1.5-18.1-3-26.7H347.2c-1.5,8.6-3,17.2-3,26.7v79.9
			c20.4,9.5,34.8,29.9,34.8,53.8c0,33-26.8,59.8-59.9,59.8c-33.1,0-59.9-26.8-59.9-59.8c0-24.6,14.9-45.6,36.2-54.8v-79
			c0-9.2,1.5-17.9,2.7-26.7H173.6c-15.6,0-28.4,12.8-28.4,28.3v461.6c0,15.6,12.8,28.3,28.4,28.3h676.9c15.6,0,28.4-12.7,28.4-28.3
			V285.6C878.9,270,866.1,257.2,850.4,257.2z M319.1,443.3c14.2,0,25.7-11.5,25.7-25.6c0-14.1-11.5-25.6-25.7-25.6
			c-14.2,0-25.7,11.5-25.7,25.6C293.3,431.8,304.9,443.3,319.1,443.3z M705.8,443.3c14.2,0,25.7-11.5,25.7-25.6
			c0-14.1-11.5-25.6-25.7-25.6c-14.2,0-25.7,11.5-25.7,25.6C680.1,431.8,691.6,443.3,705.8,443.3z M512,139.1
			c73,0,150.5,37.5,164.8,118.1h49.2C712.5,159.3,627.2,90.4,512,90.4c-115.2,0-200.5,68.9-214,166.9h49.2
			C361.5,176.6,438.9,139.1,512,139.1z"/>
	</g>
</g>
</svg>
