<?xml version="1.0" encoding="utf-8"?>
<!-- Generator: Adobe Illustrator 20.0.0, SVG Export Plug-In . SVG Version: 6.00 Build 0)  -->
<svg version="1.1" id="图层_1" xmlns="http://www.w3.org/2000/svg" xmlns:xlink="http://www.w3.org/1999/xlink" x="0px" y="0px"
	 viewBox="0 0 1024 1024" style="enable-background:new 0 0 1024 1024;" xml:space="preserve">
<path d="M898.2,426.6l-92.1-13.9c-4.3-12.6-9.4-25-15.3-37.1l55.2-74.8c9.3-12.7,8-30-3.1-41.1l-79.7-79.6c-6-6-13.9-9.3-22.4-9.3
	c-6.8,0-13.3,2.1-18.7,6.1L647.5,232c-12.1-6-24.7-11.2-37.5-15.6l-13.8-91.4c-2.3-15.4-15.7-26.9-31.3-26.9H452.2
	c-15.8,0-28.9,11.3-31.3,26.9L407,216.4c-12.8,4.3-25.3,9.6-37.5,15.6l-74.6-54.9c-5.5-4-12-6.2-18.8-6.2c-8.5,0-16.4,3.3-22.3,9.3
	l-79.7,79.6c-11.1,11.1-12.5,28.4-3.1,41.1l55.2,74.8c-5.9,12-11,24.5-15.3,37.1l-92.1,13.9c-15.6,2.4-26.9,15.5-26.9,31.3v112.6
	c0,15.5,11.6,28.9,26.9,31.2l92.7,14.1c4.3,12.3,9.3,24.5,15.2,36.3L171,727.4c-9.3,12.5-7.9,30.2,3.1,41.1l79.7,79.6
	c6,6,13.9,9.2,22.4,9.2c6.8,0,13.3-2.1,18.8-6.1l75.8-55.9c11.7,5.7,23.7,10.7,36,14.9l14.1,93.1c2.4,15.5,15.5,26.8,31.3,26.8
	h112.7c15.7,0,28.9-11.3,31.3-26.8l14.1-93c12.3-4.2,24.3-9.2,36-14.9l75.8,55.9c5.5,4,11.9,6.1,18.7,6.1c8.4,0,16.4-3.2,22.4-9.2
	l79.7-79.6c11-11,12.3-28.6,3.1-41.1L790.3,652c5.8-11.8,10.9-23.9,15.2-36.3l92.6-14c15.3-2.3,26.9-15.7,26.9-31.2V457.9
	C925,442.1,913.8,429,898.2,426.6z M508.5,692.6c-98.5,0-178.7-80-178.7-178.4c0-98.4,80.1-178.5,178.7-178.5
	c98.6,0,178.7,80,178.7,178.5C687.2,612.6,607,692.6,508.5,692.6z"/>
</svg>
