<?xml version="1.0" standalone="no"?><!DOCTYPE svg PUBLIC "-//W3C//DTD SVG 1.1//EN" "http://www.w3.org/Graphics/SVG/1.1/DTD/svg11.dtd"><svg t="1539050293269" class="icon" style="" viewBox="0 0 1024 1024" version="1.1" xmlns="http://www.w3.org/2000/svg" p-id="1949" xmlns:xlink="http://www.w3.org/1999/xlink" width="200" height="200"><defs><style type="text/css"></style></defs><path d="M491.2 712.2c-13.5-8.1-26-17.8-36.3-29.7-0.4-0.5-0.1-1.3 0.5-1.3 43.6-2.1 62.1-166.2 99.4-142.3 4.3 2.8 9.4 4.3 14.5 4.3 9.1 0 17.5-4.5 22.5-12 3.9-5.9 5.2-13 3.7-19.8-1.5-6.9-5.6-12.8-11.6-16.6-46.5-29.7-100.3-45.3-156.4-45.3-159 0.5-288.1 128.5-287.9 285.1 0 14.5 12 26.3 26.7 26.3h311.1c14.7 0 26.7-11.8 26.7-26.3-0.1-9.5-5.2-17.8-12.9-22.4z m-62.1-266.5c96.9 0 175.7-77.7 175.7-173.1 0-95.5-78.8-173.1-175.6-173.1s-175.7 77.6-175.7 173.1c0.2 95.3 79 173 175.6 173.1z m227.1 165.7h-100c-15.9 0-28.8 13.1-28.8 29.1v100.8c0 16.1 12.9 29.1 28.8 29.1h100c15.9 0 28.9-13.1 28.9-29.1V640.5c0-16.1-13-29.1-28.9-29.1z m195.1 0h-100c-15.9 0-28.9 13.1-28.9 29.1v100.8c0 16.1 12.9 29.1 28.9 29.1h100c15.9 0 28.9-13.1 28.9-29.1V640.5c0-16.1-13-29.1-28.9-29.1z m42.1-137.8l-70.7-71.3c-11.2-11.4-29.6-11.4-40.8 0l-70.6 71.3c-5.5 5.5-8.5 12.8-8.5 20.6 0 7.8 3 15.2 8.5 20.6l70.7 71.3c5.6 5.7 13 8.5 20.4 8.5 7.4 0 14.8-2.8 20.4-8.5l70.6-71.2c5.5-5.5 8.5-12.8 8.5-20.6 0-7.9-3-15.3-8.5-20.7z" p-id="1950"></path></svg>