<?xml version="1.0" standalone="no"?><!DOCTYPE svg PUBLIC "-//W3C//DTD SVG 1.1//EN" "http://www.w3.org/Graphics/SVG/1.1/DTD/svg11.dtd"><svg t="1539050302081" class="icon" style="" viewBox="0 0 1024 1024" version="1.1" xmlns="http://www.w3.org/2000/svg" p-id="2191" xmlns:xlink="http://www.w3.org/1999/xlink" width="200" height="200"><defs><style type="text/css"></style></defs><path d="M640.4 492.1c32.7-36.3 51.5-85.5 51.5-137.4 0-105.4-78.1-194.4-170.5-194.4-96 0-174.1 87.2-174.1 194.4 0 54.4 18 102.8 50.4 137.6C322 541.7 273 635.2 273 735.6v18.7c0 25.7 18.4 45 42.8 45h408c22.4 0 42.8-21.5 42.8-45v-18.7c-0.1-100.6-48.7-192.8-126.2-243.5z m83.3 260.8c-0.2 0.4-0.8 1.1 0 1.1l-407.7 0.3v-18.7c0-95.2 51.8-182.9 129-218.2 7.2-3.3 12.1-10.5 12.8-18.8 0.7-8.2-2.9-16.2-9.5-20.8-36.7-25.8-57.8-70.6-57.8-123.1 0-82.2 58.8-149.1 131-149.1 69.1 0 127.5 68.3 127.5 149.1 0 48.6-22.4 96-58.5 123.6-6.2 4.7-9.5 12.5-8.7 20.6 0.8 8 5.5 15 12.4 18.3 78.6 37.9 129.4 123.6 129.4 218.4l0.1 17.3zM338.9 493.5c0-14.9-7.1-26.1-21.3-26.1-39-7.5-67.4-44.8-67.4-89.6 0-37.3 24.8-74.7 60.3-85.9h3.5c10.6 0 17.7-11.2 17.7-22.4 0-14.9-10.6-26.1-21.3-26.1H307c-56.8 14.9-99.3 71-99.3 138.2 0 48.5 21.3 93.4 56.8 119.5-71 29.9-120.6 108.3-120.6 197.9 0 11.2 10.6 22.4 17.7 14.9 10.6 0 21.3-7.5 21.3-22.4 0-89.6 53.2-164.3 131.3-171.8 14.1 0 24.7-11.2 24.7-26.2zM775 501c35.5-26.1 56.8-71 56.8-119.5 0-67.2-42.6-123.2-99.3-138.2H729c-10.6 0-21.3 11.2-21.3 26.1 0 11.2 7.1 22.4 17.7 22.4h3.6c35.5 11.2 60.3 48.5 60.3 85.9 0 44.8-28.4 82.2-67.4 89.6-14.2 0-21.3 11.2-21.3 26.1 0 14.9 10.6 26.1 24.8 26.1 78 7.5 131.3 82.2 131.3 171.8 0 14.9 10.6 22.4 21.3 22.4 7.1 7.5 17.7-3.7 17.7-14.9C895.6 609.3 846 530.9 775 501z" p-id="2192"></path></svg>