<?xml version="1.0" standalone="no"?><!DOCTYPE svg PUBLIC "-//W3C//DTD SVG 1.1//EN" "http://www.w3.org/Graphics/SVG/1.1/DTD/svg11.dtd"><svg t="1539050258031" class="icon" style="" viewBox="0 0 1024 1024" version="1.1" xmlns="http://www.w3.org/2000/svg" p-id="1102" xmlns:xlink="http://www.w3.org/1999/xlink" width="200" height="200"><defs><style type="text/css"></style></defs><path d="M789.8 207.1H232.3c-43.1 0-78.1 34.7-78.1 77.4v464.4c0 42.7 35 77.4 78.1 77.4h557.5c43.1 0 78.1-34.7 78.1-77.4V284.5c0-42.7-35-77.4-78.1-77.4zM269.3 715.6V500.9c0-8.9 9.3-16.1 20.7-16.1h81.4c11.4 0 20.7 7.2 20.7 16.1v214.7H269.3z m159.8 0V424.3c0-8.9 9.3-16.1 20.7-16.1h81.4c11.4 0 20.7 7.2 20.7 16.1v291.3H429.1z m286.4 0H592.8V341.3c0-8.9 9.3-16.1 20.7-16.1h77.3c11.4 0 24.9 7.2 24.9 16.1v374.3z" p-id="1103"></path></svg>