<?xml version="1.0" encoding="utf-8"?>
<!-- Generator: Adobe Illustrator 20.0.0, SVG Export Plug-In . SVG Version: 6.00 Build 0)  -->
<svg version="1.1" id="图层_1" xmlns="http://www.w3.org/2000/svg" xmlns:xlink="http://www.w3.org/1999/xlink" x="0px" y="0px"
	 viewBox="0 0 1024 1024" style="enable-background:new 0 0 1024 1024;" xml:space="preserve">
<path d="M829,209.5H188c-15.7,0-28.4,14.6-28.4,32.6v538.6c0,18,12.7,32.6,28.4,32.6h211.2h224.6H829c15.7,0,28.4-14.6,28.4-32.6
	V242.1C857.4,224.1,844.7,209.5,829,209.5z M626.6,574.3c-3.8,7.3-11.2,12.1-19.4,12.5c-8.4,0.4-16-3.6-20.5-10.4l-72.6-110.1
	l-44.3,116.3c-3.4,9-11.9,14.9-21.4,15.1c-10-1.2-18.1-5.6-21.8-14.5l-34.5-83.8l-85.1,147c-4.3,7.5-12.1,11.6-20.1,11.6
	c-4,0-8-1-11.7-3.2c-11.1-6.6-14.8-21-8.3-32.2l108.7-187.7c4.5-7.7,13.1-11.9,21.7-11.6c8.8,0.6,16.5,6.2,19.9,14.4l30.1,73.2
	l39.6-103.9c3.1-8.2,10.5-14,19.1-14.9c8.7-1,17.1,3,21.9,10.3l75.8,115.1l46.7-89.5l-41-21.8l117.8-75l5.3,140.6l-41-21.9
	L626.6,574.3z"/>
</svg>
