<?xml version="1.0" encoding="utf-8"?>
<!-- Generator: Adobe Illustrator 20.0.0, SVG Export Plug-In . SVG Version: 6.00 Build 0)  -->
<svg version="1.1" id="图层_1" xmlns="http://www.w3.org/2000/svg" xmlns:xlink="http://www.w3.org/1999/xlink" x="0px" y="0px"
	 viewBox="0 0 1024 1024" style="enable-background:new 0 0 1024 1024;" xml:space="preserve">
<path d="M254.4,817.2c-24.4,0-40.6-3-52.8-9.8c-16.4-9.1-24.7-24.9-24.7-47.1V643.7c0-9.8,2.4-34.2,24.7-49.7l0.9-0.6l1.1-0.4
	c24.1-8.8,51.7-25.5,51.7-76.6c0-42.8-33.9-66.6-54-77l-0.2-0.1l-0.2-0.1c-22.2-13.1-23.9-29.7-23.9-50V272.4
	c0-22.2,8.3-38.1,24.7-47.1c12.2-6.7,28.5-9.8,52.8-9.8h515.1c24.4,0,40.6,3,52.8,9.8c16.4,9.1,24.7,24.9,24.7,47.1v116.7
	c0,20.5-1.1,33.8-23.3,49.6l-0.3,0.2l-0.4,0.2c-42.2,24.4-54.4,41.7-54.4,77.2c0,35.3,13.2,54,54.3,77.2l0.6,0.3l0.6,0.4
	c16.2,12.9,22.9,22.6,22.9,49.3v116.7c0,22.2-8.3,38.1-24.7,47.1c-12.2,6.7-28.5,9.8-52.8,9.8H254.4z M754.7,762.3c1.7,0,3.4,0,5,0
	c1.6,0,3.1,0,4.7,0c26.1,0,31.4-3.2,31.4-19v-99.5c-22.4-9.9-41.5-26.2-55.7-47.3c-15.7-23.4-24.1-51.2-24.1-80.2
	c0-55.5,31.1-105.4,79.2-127.1c0.5-0.2,1-0.8,1-1.7v-98.2c0-15.8-5.3-19-31.4-19c-1.5,0-3.1,0-4.7,0c-1.7,0-3.3,0-5,0H269.3
	c-1.7,0-3.4,0-5,0c-1.6,0-3.1,0-4.7,0c-26.1,0-31.4,3.2-31.4,19v98.2c0,0.9,0.5,1.5,1,1.7c47.8,21.8,78.8,71.7,78.8,127.1
	c0,55.5-31.1,105.4-79.2,127.1c-0.5,0.2-1,0.8-1,1.7v98.2c0,12.4,4.5,14.8,6.7,15.9c5.6,2.9,15.3,3.1,24.7,3.1c1.5,0,3.1,0,4.7,0
	c1.7,0,3.3,0,5,0H754.7z M512.2,683.7c-15.6,0-28.2-13.4-28.2-29.8v-79.2c0-10.8,8.3-19.7,18.4-19.7H522c10,0,18.1,8.2,18.8,19
	l0,0.3v79.1C540.9,670.1,528,683.7,512.2,683.7z M512.2,477.8c-15.6,0-28.2-13.4-28.2-29.8v-79.2c0-10.9,8.3-19.7,18.4-19.7H522
	c10,0,18.1,8.2,18.8,19.1l0,0.3v79.1C540.9,464.2,528,477.8,512.2,477.8z"/>
</svg>
