<?xml version="1.0" encoding="utf-8"?>
<!-- Generator: Adobe Illustrator 20.0.0, SVG Export Plug-In . SVG Version: 6.00 Build 0)  -->
<svg version="1.1" id="图层_1" xmlns="http://www.w3.org/2000/svg" xmlns:xlink="http://www.w3.org/1999/xlink" x="0px" y="0px"
	 viewBox="0 0 1024 1024" style="enable-background:new 0 0 1024 1024;" xml:space="preserve">
<path d="M792.4,204H236.1c-43,0-78,34.6-78,77.2v463.4c0,42.6,35,77.2,78,77.2h556.3c43,0,78-34.6,78-77.2V281.2
	C870.3,238.6,835.4,204,792.4,204z M609.5,448.3c16.2,0,29.2,13,29.2,29c0,16-13.1,29-29.2,29h-66.1v28.2h66.1
	c16.2,0,29.2,13,29.2,29c0,16-13.1,29-29.2,29h-66.1v85.2c0,16-13.1,29-29.2,29c-16.2,0-29.2-13-29.2-29v-85.2h-66.1
	c-16.2,0-29.2-13-29.2-29c0-16,13.1-29,29.2-29H485v-28.2h-66.1c-16.2,0-29.2-13-29.2-29c0-16,13.1-29,29.2-29h48.9l-75.4-62.6
	c-12.4-10.3-14-28.5-3.6-40.8c10.3-12.2,28.8-13.9,41.2-3.6l84.3,69.9l84.2-69.9c12.3-10.3,30.8-8.6,41.2,3.6
	c10.4,12.3,8.7,30.5-3.6,40.8l-75.4,62.6H609.5z"/>
</svg>
