<?xml version="1.0" encoding="utf-8"?>
<!-- Generator: Adobe Illustrator 20.0.0, SVG Export Plug-In . SVG Version: 6.00 Build 0)  -->
<svg version="1.1" id="图层_1" xmlns="http://www.w3.org/2000/svg" xmlns:xlink="http://www.w3.org/1999/xlink" x="0px" y="0px"
	 viewBox="0 0 1024 1024" style="enable-background:new 0 0 1024 1024;" xml:space="preserve">
<g>
	<g>
		<path d="M823.1,746.3L662.5,587.4c-5.5-5.4-12-9.2-19-11.3c3.3-4.2,6.5-8.4,9.6-12.8c43.7-61.9,60.5-137,47.2-211.3
			c-13.3-74.4-55.2-139.1-117.7-182.4C519.9,126.4,444,109.8,368.8,123c-75.2,13.2-140.7,54.5-184.5,116.4
			c-43.7,61.9-60.5,137-47.2,211.3c13.3,74.4,55.2,139.2,117.7,182.4c48.6,33.6,105.1,51.1,163.2,51.1c16.8,0,33.7-1.5,50.5-4.4
			c43.2-7.6,83.2-24.5,117.8-49.2c2,7.5,5.9,14.5,11.8,20.4l160.6,158.9c8.9,8.8,20.5,13.2,32.1,13.2c11.6,0,23.3-4.4,32.1-13.2
			C840.9,792.3,840.9,763.8,823.1,746.3z M456.8,613.5c-57.3,10-115.1-2.6-162.7-35.5c-47.7-33-79.5-82.3-89.7-138.9
			c-10.2-56.6,2.6-113.8,35.9-161c33.3-47.1,83.2-78.6,140.5-88.7c12.8-2.2,25.7-3.4,38.5-3.4c44.2,0,87.3,13.3,124.3,38.9
			c47.7,33,79.5,82.3,89.7,138.9c10.2,56.6-2.6,113.8-35.9,160.9C563.9,571.9,514,603.4,456.8,613.5z"/>
	</g>
</g>
</svg>
