<?xml version="1.0" encoding="utf-8"?>
<!-- Generator: Adobe Illustrator 20.0.0, SVG Export Plug-In . SVG Version: 6.00 Build 0)  -->
<svg version="1.1" id="图层_1" xmlns="http://www.w3.org/2000/svg" xmlns:xlink="http://www.w3.org/1999/xlink" x="0px" y="0px"
	 viewBox="0 0 1024 1024" style="enable-background:new 0 0 1024 1024;" xml:space="preserve">
<path d="M296.8,889.9c-16.3,0-29.6-15.7-29.6-35.1c0-19.3,13.3-35.1,29.6-35.1h87.7l8.8-109.1H172.7c-16.3,0-29.6-15.7-29.6-35.1
	V247c0-19.3,13.3-35.1,29.6-35.1h669.1c16.3,0,29.7,15.7,29.7,35.1v428.6c0,19.3-13.3,35.1-29.7,35.1H627.7l8.8,109.1h94
	c16.4,0,29.6,15.7,29.6,35.1c0,19.3-13.3,35.1-29.6,35.1H296.8z"/>
</svg>
