<?xml version="1.0" encoding="utf-8"?>
<!-- Generator: Adobe Illustrator 20.0.0, SVG Export Plug-In . SVG Version: 6.00 Build 0)  -->
<svg version="1.1" id="图层_1" xmlns="http://www.w3.org/2000/svg" xmlns:xlink="http://www.w3.org/1999/xlink" x="0px" y="0px"
	 viewBox="0 0 1024 1024" style="enable-background:new 0 0 1024 1024;" xml:space="preserve">
<g>
	<g>
		<path d="M878.7,367.4c-8.1-8-21.3-12.5-33.5-12.5l-538.8,2.5c-2.6,0-5.1,0.2-7.6,0.5l-24-106.7c-2.4-10.5-13.3-17.8-25.5-17.9
			l-66.5,1.4c-14,0.3-25.1,10.4-24.8,22.6c0.3,12.2,11.9,21.3,26,21.6l45.1-0.9l102,453.1c-14.8,15.5-23.7,35.5-23.7,57.2
			c0,49.5,46.2,89.7,103,89.7c48.4,0,89.1-29.2,100.1-68.5h97.1c11.4,40.3,53.3,70.3,103,70.3c58.5,0,106.1-41.4,106.1-92.4
			c0-51-47.6-92.4-106.1-92.4c-49.7,0-91.6,30-103,70.3h-97.6c-11.7-38.4-51.9-66.7-99.6-66.7c-11.8,0-23.1,1.7-33.7,4.9L369,670
			l405.3-3.5c22.1-0.2,42.3-12.8,46.9-29.3l66.1-237.6C890.5,387.7,887.4,376,878.7,367.4z M710.4,745.3c26.7,0,48.5,18.9,48.5,42.2
			c0,23.3-21.7,42.2-48.5,42.2c-26.7,0-48.4-18.9-48.4-42.2C662,764.2,683.7,745.3,710.4,745.3z M457.3,788.4c0,22.6-21.1,41-47,41
			c-25.9,0-47-18.4-47-41c0-22.6,21.1-41,47-41C436.2,747.4,457.3,765.7,457.3,788.4z"/>
	</g>
</g>
</svg>
