<?xml version="1.0" standalone="no"?><!DOCTYPE svg PUBLIC "-//W3C//DTD SVG 1.1//EN" "http://www.w3.org/Graphics/SVG/1.1/DTD/svg11.dtd"><svg t="1539050289184" class="icon" style="" viewBox="0 0 1024 1024" version="1.1" xmlns="http://www.w3.org/2000/svg" p-id="1828" xmlns:xlink="http://www.w3.org/1999/xlink" width="200" height="200"><defs><style type="text/css"></style></defs><path d="M850.4 257.2H725.9c1.2 8.8 2.7 17.5 2.7 26.7v78.6c21.8 8.9 37.2 30.2 37.2 55.2 0 33-26.8 59.8-59.9 59.8-33.1 0-60-26.8-60-59.8 0-23.5 14-43.4 33.8-53.1V284c0-9.5-1.5-18.1-3-26.7H347.2c-1.5 8.6-3 17.2-3 26.7v79.9c20.4 9.5 34.8 29.9 34.8 53.8 0 33-26.8 59.8-59.9 59.8-33.1 0-59.9-26.8-59.9-59.8 0-24.6 14.9-45.6 36.2-54.8v-79c0-9.2 1.5-17.9 2.7-26.7H173.6c-15.6 0-28.4 12.8-28.4 28.3v461.6c0 15.6 12.8 28.3 28.4 28.3h676.9c15.6 0 28.4-12.7 28.4-28.3V285.6c0-15.6-12.8-28.4-28.5-28.4zM319.1 443.3c14.2 0 25.7-11.5 25.7-25.6 0-14.1-11.5-25.6-25.7-25.6s-25.7 11.5-25.7 25.6c-0.1 14.1 11.5 25.6 25.7 25.6z m386.7 0c14.2 0 25.7-11.5 25.7-25.6 0-14.1-11.5-25.6-25.7-25.6s-25.7 11.5-25.7 25.6c0 14.1 11.5 25.6 25.7 25.6zM512 139.1c73 0 150.5 37.5 164.8 118.1H726c-13.5-97.9-98.8-166.8-214-166.8s-200.5 68.9-214 166.9h49.2c14.3-80.7 91.7-118.2 164.8-118.2z" p-id="1829"></path></svg>