<?xml version="1.0" encoding="utf-8"?>
<!-- Generator: Adobe Illustrator 20.0.0, SVG Export Plug-In . SVG Version: 6.00 Build 0)  -->
<svg version="1.1" id="图层_1" xmlns="http://www.w3.org/2000/svg" xmlns:xlink="http://www.w3.org/1999/xlink" x="0px" y="0px"
	 viewBox="0 0 1024 1024" style="enable-background:new 0 0 1024 1024;" xml:space="preserve">
<g>
	<g>
		<path d="M491.2,712.2c-13.5-8.1-26-17.8-36.3-29.7l0,0c-0.4-0.5-0.1-1.3,0.5-1.3c43.6-2.1,62.1-166.2,99.4-142.3
			c4.3,2.8,9.4,4.3,14.5,4.3c9.1,0,17.5-4.5,22.5-12c3.9-5.9,5.2-13,3.7-19.8c-1.5-6.9-5.6-12.8-11.6-16.6
			c-46.5-29.7-100.3-45.3-156.4-45.3C268.5,450,139.4,578,139.6,734.6c0,14.5,12,26.3,26.7,26.3h311.1c14.7,0,26.7-11.8,26.7-26.3
			C504,725.1,498.9,716.8,491.2,712.2z M429.1,445.7L429.1,445.7c96.9,0,175.7-77.7,175.7-173.1c0-95.5-78.8-173.1-175.6-173.1
			s-175.7,77.6-175.7,173.1C253.7,367.9,332.5,445.6,429.1,445.7z M656.2,611.4h-100c-15.9,0-28.8,13.1-28.8,29.1v100.8
			c0,16.1,12.9,29.1,28.8,29.1h100c15.9,0,28.9-13.1,28.9-29.1V640.5C685.1,624.4,672.1,611.4,656.2,611.4z M851.3,611.4h-100
			c-15.9,0-28.9,13.1-28.9,29.1v100.8c0,16.1,12.9,29.1,28.9,29.1h100c15.9,0,28.9-13.1,28.9-29.1V640.5
			C880.2,624.4,867.2,611.4,851.3,611.4z M893.4,473.6l-70.7-71.3c-11.2-11.4-29.6-11.4-40.8,0l-70.6,71.3
			c-5.5,5.5-8.5,12.8-8.5,20.6c0,7.8,3,15.2,8.5,20.6l70.7,71.3c5.6,5.7,13,8.5,20.4,8.5c7.4,0,14.8-2.8,20.4-8.5l70.6-71.2
			c5.5-5.5,8.5-12.8,8.5-20.6C901.9,486.4,898.9,479,893.4,473.6z"/>
	</g>
</g>
</svg>
