<svg xmlns="http://www.w3.org/2000/svg" viewBox="0 0 11.94 9.64"><defs><style>.cls-1{fill:#050000;}</style></defs><title>资源 3</title><g id="图层_2" data-name="图层 2"><g id="图层_1-2" data-name="图层 1"><path class="cls-1" d="M9.21,9.64H2.73A.66.66,0,0,1,2.05,9V8.68A4.33,4.33,0,0,1,4,5a3,3,0,0,1-.8-2.08A2.86,2.86,0,0,1,6,0,2.86,2.86,0,0,1,8.7,2.93,3,3,0,0,1,7.89,5a4.33,4.33,0,0,1,2,3.68V9A.71.71,0,0,1,9.21,9.64Z"/><path class="cls-1" d="M0,8.12a3.18,3.18,0,0,1,1.92-3A2.17,2.17,0,0,1,1,3.34,2.14,2.14,0,0,1,2.59,1.25h.06a.38.38,0,0,1,.34.4A.31.31,0,0,1,2.7,2H2.65a1.39,1.39,0,0,0-1,1.3A1.33,1.33,0,0,0,2.76,4.63c.23,0,.34.17.34.4a.39.39,0,0,1-.4.39A2.43,2.43,0,0,0,.62,8a.32.32,0,0,1-.34.34C.17,8.46,0,8.29,0,8.12"/><path class="cls-1" d="M11.94,8.12a3.18,3.18,0,0,0-1.92-3,2.16,2.16,0,0,0,.9-1.8A2.13,2.13,0,0,0,9.35,1.25H9.29a.38.38,0,0,0-.34.4A.31.31,0,0,0,9.23,2h.06a1.4,1.4,0,0,1,1,1.3A1.33,1.33,0,0,1,9.18,4.63c-.23,0-.34.17-.34.4a.38.38,0,0,0,.39.39A2.44,2.44,0,0,1,11.32,8a.32.32,0,0,0,.34.34c.11.11.28-.06.28-.23"/></g></g></svg>