<?xml version="1.0" standalone="no"?><!DOCTYPE svg PUBLIC "-//W3C//DTD SVG 1.1//EN" "http://www.w3.org/Graphics/SVG/1.1/DTD/svg11.dtd"><svg t="1539050327161" class="icon" style="" viewBox="0 0 1024 1024" version="1.1" xmlns="http://www.w3.org/2000/svg" p-id="2917" xmlns:xlink="http://www.w3.org/1999/xlink" width="200" height="200"><defs><style type="text/css"></style></defs><path d="M296.8 889.9c-16.3 0-29.6-15.7-29.6-35.1 0-19.3 13.3-35.1 29.6-35.1h87.7l8.8-109.1H172.7c-16.3 0-29.6-15.7-29.6-35.1V247c0-19.3 13.3-35.1 29.6-35.1h669.1c16.3 0 29.7 15.7 29.7 35.1v428.6c0 19.3-13.3 35.1-29.7 35.1H627.7l8.8 109.1h94c16.4 0 29.6 15.7 29.6 35.1 0 19.3-13.3 35.1-29.6 35.1H296.8z" p-id="2918"></path></svg>