<?xml version="1.0" encoding="utf-8"?>
<!-- Generator: Adobe Illustrator 20.0.0, SVG Export Plug-In . SVG Version: 6.00 Build 0)  -->
<svg version="1.1" id="图层_1" xmlns="http://www.w3.org/2000/svg" xmlns:xlink="http://www.w3.org/1999/xlink" x="0px" y="0px"
	 viewBox="0 0 1024 1024" style="enable-background:new 0 0 1024 1024;" xml:space="preserve">
<path d="M789.8,207.1H232.3c-43.1,0-78.1,34.7-78.1,77.4v464.4c0,42.7,35,77.4,78.1,77.4h557.5c43.1,0,78.1-34.7,78.1-77.4V284.5
	C867.9,241.8,832.9,207.1,789.8,207.1z M269.3,715.6V500.9c0-8.9,9.3-16.1,20.7-16.1h81.4c11.4,0,20.7,7.2,20.7,16.1v214.7H269.3z
	 M429.1,715.6V424.3c0-8.9,9.3-16.1,20.7-16.1h81.4c11.4,0,20.7,7.2,20.7,16.1v291.3H429.1z M715.5,715.6H592.8V341.3
	c0-8.9,9.3-16.1,20.7-16.1h77.3c11.4,0,24.9,7.2,24.9,16.1V715.6z"/>
</svg>
