<?xml version="1.0" encoding="utf-8"?>
<!-- Generator: Adobe Illustrator 20.0.0, SVG Export Plug-In . SVG Version: 6.00 Build 0)  -->
<svg version="1.1" id="图层_1" xmlns="http://www.w3.org/2000/svg" xmlns:xlink="http://www.w3.org/1999/xlink" x="0px" y="0px"
	 viewBox="0 0 1024 1024" style="enable-background:new 0 0 1024 1024;" xml:space="preserve">
<g>
	<g>
		<path d="M751.4,571.1c-54.2-51-123.9-82.1-199.1-89.6C642.8,463.8,711,388.6,711,298.7C711,195.8,621.6,112,511.7,112
			c-109.9,0-199.3,83.7-199.3,186.7c0,91.1,70.1,167.2,162.4,183.4c-163.3,19.3-290,150.2-290,308.3c0,16.4,14.8,30.2,32.2,30.2
			h598.4c17.5,0,32.3-13.8,32.3-30.1C848.1,707.7,813.9,629.8,751.4,571.1z M451.6,247.8l-15.7-14.2c-17.8,6.8-31.1,11.8-47,15.5
			c20.1-45.2,67.9-75.9,122.8-75.9c21.7,0,42.6,5,61.3,14c-5.7-1.2-11.4-1.9-17-1.9c-0.2,0-0.4,0-0.6,0
			c-34.5,2.6-56.1,15.3-75.1,26.4l10.6,15.8l-16.5-12.4c-9,5.2-18.8,10.9-30.4,15.4L451.6,247.8z M520.3,590.2l-66.7-43
			c20.3-4.8,41.3-7.2,63-7.2c22.2,0,44.3,2.6,65.3,7.6L520.3,590.2z"/>
	</g>
</g>
</svg>
