<?xml version="1.0" standalone="no"?><!DOCTYPE svg PUBLIC "-//W3C//DTD SVG 1.1//EN" "http://www.w3.org/Graphics/SVG/1.1/DTD/svg11.dtd"><svg t="1539050305879" class="icon" style="" viewBox="0 0 1024 1024" version="1.1" xmlns="http://www.w3.org/2000/svg" p-id="2312" xmlns:xlink="http://www.w3.org/1999/xlink" width="200" height="200"><defs><style type="text/css"></style></defs><path d="M512 878.3c-82.2 0-148.9-54.2-148.9-121v-7.4H186.6c-17.4 0-32.9-8.2-41.1-20.8-7.3-12.6-5.5-28.2 6.4-38.6l30.2-29.7c9.1-8.9 17.4-19.3 23.8-29.7 14.6-22.3 21.9-47.5 21.9-72.8V439.5c0-50.5 20.1-98 56.7-138.8 32.9-35.6 78.6-63.1 129.8-78.7v-7.4c0-43.8 43.9-80.2 98.7-80.2 54.8 0 98.7 35.6 98.7 80.2v7.4c51.2 15.6 96.9 43.1 129.8 78.7 37.5 40.1 56.7 88.3 56.7 138.8v118c0 26 7.3 50.5 21.9 73.5 6.4 10.4 14.6 20 23.8 29.7l26.5 26c9.1 6.7 14.6 16.3 14.6 26.7 0 20-20.1 36.4-44.8 36.4H660v7.4c0.9 66.1-65.8 121.1-148 121.1z m-76.8-129.2c-0.9 3-0.9 6.7-0.9 10.4 0 34.9 34.7 63.1 77.7 63.1s77.7-28.2 77.7-63.1c0-3.7 0-6.7-0.9-10.4H435.2z m350-53.5c-3.7-4.5-6.4-8.9-9.1-13.4-22.8-36.4-50.3-67.5-50.3-117.3V435.8c0-95.8-96-173.7-213.8-173.7-117.9 0-213.8 77.9-213.8 173.7V565c-1.8 54.2-27.4 80.9-50.3 117.3-2.7 4.5-6.4 8.9-9.1 13.4h546.4z m0 0" p-id="2313"></path></svg>