<?xml version="1.0" standalone="no"?><!DOCTYPE svg PUBLIC "-//W3C//DTD SVG 1.1//EN" "http://www.w3.org/Graphics/SVG/1.1/DTD/svg11.dtd"><svg t="1539050224452" class="icon" style="" viewBox="0 0 1024 1024" version="1.1" xmlns="http://www.w3.org/2000/svg" p-id="739" xmlns:xlink="http://www.w3.org/1999/xlink" width="200" height="200"><defs><style type="text/css"></style></defs><path d="M878.7 367.4c-8.1-8-21.3-12.5-33.5-12.5l-538.8 2.5c-2.6 0-5.1 0.2-7.6 0.5l-24-106.7c-2.4-10.5-13.3-17.8-25.5-17.9l-66.5 1.4c-14 0.3-25.1 10.4-24.8 22.6 0.3 12.2 11.9 21.3 26 21.6l45.1-0.9 102 453.1c-14.8 15.5-23.7 35.5-23.7 57.2 0 49.5 46.2 89.7 103 89.7 48.4 0 89.1-29.2 100.1-68.5h97.1c11.4 40.3 53.3 70.3 103 70.3 58.5 0 106.1-41.4 106.1-92.4 0-51-47.6-92.4-106.1-92.4-49.7 0-91.6 30-103 70.3H510c-11.7-38.4-51.9-66.7-99.6-66.7-11.8 0-23.1 1.7-33.7 4.9L369 670l405.3-3.5c22.1-0.2 42.3-12.8 46.9-29.3l66.1-237.6c3.2-11.9 0.1-23.6-8.6-32.2zM710.4 745.3c26.7 0 48.5 18.9 48.5 42.2 0 23.3-21.7 42.2-48.5 42.2-26.7 0-48.4-18.9-48.4-42.2 0-23.3 21.7-42.2 48.4-42.2z m-253.1 43.1c0 22.6-21.1 41-47 41s-47-18.4-47-41 21.1-41 47-41 47 18.3 47 41z" p-id="740"></path></svg>