<?xml version="1.0" encoding="utf-8"?>
<!-- Generator: Adobe Illustrator 20.0.0, SVG Export Plug-In . SVG Version: 6.00 Build 0)  -->
<svg version="1.1" id="图层_1" xmlns="http://www.w3.org/2000/svg" xmlns:xlink="http://www.w3.org/1999/xlink" x="0px" y="0px"
	 viewBox="0 0 1024 1024" style="enable-background:new 0 0 1024 1024;" xml:space="preserve">
<path d="M512,878.3c-82.2,0-148.9-54.2-148.9-121v-7.4H186.6c-17.4,0-32.9-8.2-41.1-20.8c-7.3-12.6-5.5-28.2,6.4-38.6l30.2-29.7
	c9.1-8.9,17.4-19.3,23.8-29.7c14.6-22.3,21.9-47.5,21.9-72.8V439.5c0-50.5,20.1-98,56.7-138.8c32.9-35.6,78.6-63.1,129.8-78.7v-7.4
	c0-43.8,43.9-80.2,98.7-80.2c54.8,0,98.7,35.6,98.7,80.2v7.4c51.2,15.6,96.9,43.1,129.8,78.7c37.5,40.1,56.7,88.3,56.7,138.8v118
	c0,26,7.3,50.5,21.9,73.5c6.4,10.4,14.6,20,23.8,29.7l26.5,26c9.1,6.7,14.6,16.3,14.6,26.7c0,20-20.1,36.4-44.8,36.4H660v7.4
	C660.9,823.3,594.2,878.3,512,878.3L512,878.3z M435.2,749.1c-0.9,3-0.9,6.7-0.9,10.4c0,34.9,34.7,63.1,77.7,63.1
	s77.7-28.2,77.7-63.1c0-3.7,0-6.7-0.9-10.4H435.2z M785.2,695.6c-3.7-4.5-6.4-8.9-9.1-13.4c-22.8-36.4-50.3-67.5-50.3-117.3V435.8
	c0-95.8-96-173.7-213.8-173.7c-117.9,0-213.8,77.9-213.8,173.7V565c-1.8,54.2-27.4,80.9-50.3,117.3c-2.7,4.5-6.4,8.9-9.1,13.4H785.2
	z M785.2,695.6"/>
</svg>
