<?xml version="1.0" encoding="utf-8"?>
<!-- Generator: Adobe Illustrator 20.0.0, SVG Export Plug-In . SVG Version: 6.00 Build 0)  -->
<svg version="1.1" id="图层_1" xmlns="http://www.w3.org/2000/svg" xmlns:xlink="http://www.w3.org/1999/xlink" x="0px" y="0px"
	 viewBox="0 0 1024 1024" style="enable-background:new 0 0 1024 1024;" xml:space="preserve">
<path d="M848.3,323.7L519.5,101.3c-4.6-3.1-10-4.8-15.6-4.8c-5.6,0-11,1.7-15.6,4.8l-320,222.4c-6.9,4.9-11.1,12.7-11.1,21v428.3
	c0,7,2.9,13.9,8.1,18.7c5,4.7,11.6,7.3,18.7,7.3h648.9c14.8,0,26.8-11.6,26.8-25.9V344.8C859.7,336.4,855.4,328.5,848.3,323.7z
	 M708.3,437.5H566.3c-14.8,0-26.8,11.6-26.8,25.9v108.9c0,7.5-6.1,13.5-13.5,13.5H406.3c-14.8,0-26.9,11.6-26.9,25.9v130.7h-61.9
	V420.3c0-7.5,6.1-13.5,13.5-13.5h377.2V437.5z"/>
</svg>
