<?xml version="1.0" standalone="no"?><!DOCTYPE svg PUBLIC "-//W3C//DTD SVG 1.1//EN" "http://www.w3.org/Graphics/SVG/1.1/DTD/svg11.dtd"><svg t="1539050317698" class="icon" style="" viewBox="0 0 1024 1024" version="1.1" xmlns="http://www.w3.org/2000/svg" p-id="2675" xmlns:xlink="http://www.w3.org/1999/xlink" width="200" height="200"><defs><style type="text/css"></style></defs><path d="M254.4 817.2c-24.4 0-40.6-3-52.8-9.8-16.4-9.1-24.7-24.9-24.7-47.1V643.7c0-9.8 2.4-34.2 24.7-49.7l0.9-0.6 1.1-0.4c24.1-8.8 51.7-25.5 51.7-76.6 0-42.8-33.9-66.6-54-77l-0.2-0.1-0.2-0.1c-22.2-13.1-23.9-29.7-23.9-50V272.4c0-22.2 8.3-38.1 24.7-47.1 12.2-6.7 28.5-9.8 52.8-9.8h515.1c24.4 0 40.6 3 52.8 9.8 16.4 9.1 24.7 24.9 24.7 47.1v116.7c0 20.5-1.1 33.8-23.3 49.6l-0.3 0.2-0.4 0.2c-42.2 24.4-54.4 41.7-54.4 77.2 0 35.3 13.2 54 54.3 77.2l0.6 0.3 0.6 0.4c16.2 12.9 22.9 22.6 22.9 49.3v116.7c0 22.2-8.3 38.1-24.7 47.1-12.2 6.7-28.5 9.8-52.8 9.8H254.4z m500.3-54.9h9.7c26.1 0 31.4-3.2 31.4-19v-99.5c-22.4-9.9-41.5-26.2-55.7-47.3-15.7-23.4-24.1-51.2-24.1-80.2 0-55.5 31.1-105.4 79.2-127.1 0.5-0.2 1-0.8 1-1.7v-98.2c0-15.8-5.3-19-31.4-19H259.6c-26.1 0-31.4 3.2-31.4 19v98.2c0 0.9 0.5 1.5 1 1.7C277 411 308 460.9 308 516.3c0 55.5-31.1 105.4-79.2 127.1-0.5 0.2-1 0.8-1 1.7v98.2c0 12.4 4.5 14.8 6.7 15.9 5.6 2.9 15.3 3.1 24.7 3.1h495.5z m-242.5-78.6c-15.6 0-28.2-13.4-28.2-29.8v-79.2c0-10.8 8.3-19.7 18.4-19.7H522c10 0 18.1 8.2 18.8 19V653.4c0.1 16.7-12.8 30.3-28.6 30.3z m0-205.9c-15.6 0-28.2-13.4-28.2-29.8v-79.2c0-10.9 8.3-19.7 18.4-19.7H522c10 0 18.1 8.2 18.8 19.1V447.6c0.1 16.6-12.8 30.2-28.6 30.2z" p-id="2676"></path></svg>