<?xml version="1.0" standalone="no"?><!DOCTYPE svg PUBLIC "-//W3C//DTD SVG 1.1//EN" "http://www.w3.org/Graphics/SVG/1.1/DTD/svg11.dtd"><svg t="1539050280527" class="icon" style="" viewBox="0 0 1024 1024" version="1.1" xmlns="http://www.w3.org/2000/svg" p-id="1586" xmlns:xlink="http://www.w3.org/1999/xlink" width="200" height="200"><defs><style type="text/css"></style></defs><path d="M267.9 860.5c-4.5 0-8.2-3.8-8.2-8.4V178.8c0-4.6 3.7-8.4 8.2-8.4h494.3c4.5 0 8.2 3.8 8.2 8.4v673.4c0 4.6-3.7 8.4-8.2 8.4H267.9z m8.2-16.8h477.8V187.2H276.1v656.5z m331.1-241.9c-1 0-2.2-0.5-2.9-1.2-0.8-0.8-1.2-1.9-1.2-2.9 0-1.1 0.4-2.2 1.1-2.9 0.4-0.4 1.4-0.9 3-0.9s2.6 0.5 2.9 0.8c0.7 0.7 1.2 1.9 1.2 3s-0.5 2.2-1.2 2.9c-0.6 0.7-1.8 1.2-2.9 1.2z m-199.5-2.2c-2.3 0-4.1-1.9-4.1-4.2 0-2.3 1.8-4.2 4.1-4.2h97.4c2.3 0 4.1 1.9 4.1 4.2 0 2.3-1.8 4.2-4.1 4.2h-97.4z m4.6-134.7c-2.3 0-4.1-1.9-4.1-4.2 0-2.3 1.9-4.2 4.1-4.2h196.1c2.3 0 4.1 1.9 4.1 4.2 0 2.3-1.8 4.2-4.1 4.2H412.3z m0-126.2c-2.3 0-4.1-1.9-4.1-4.2 0-2.3 1.9-4.2 4.1-4.2h196.1c2.3 0 4.1 1.9 4.1 4.2 0 2.3-1.8 4.2-4.1 4.2H412.3z" p-id="1587"></path></svg>