<?xml version="1.0" encoding="utf-8"?>
<!-- Generator: Adobe Illustrator 20.0.0, SVG Export Plug-In . SVG Version: 6.00 Build 0)  -->
<svg version="1.1" id="图层_1" xmlns="http://www.w3.org/2000/svg" xmlns:xlink="http://www.w3.org/1999/xlink" x="0px" y="0px"
	 viewBox="0 0 1024 1024" style="enable-background:new 0 0 1024 1024;" xml:space="preserve">
<g>
	<g>
		<path d="M806.1,519.8c-4.5,0-8.1,3.7-8.1,8.2v284.9H228.1V527.9c0-4.5-3.6-8.2-8.1-8.2c-4.5,0-8.1,3.7-8.1,8.2v293
			c0,4.3,4.1,8.2,8.8,8.2h585.5c4.5,0,8.2-3.7,8.2-8.2v-293C814.3,523.4,810.6,519.8,806.1,519.8z M514.3,729.1c3.9,0,7-3.7,7-8.2
			V533.3c0-4.3-3.5-8.2-7.5-8.2h-189c-3.9,0-7,3.7-7,8.2V721c0,4.3,3.5,8.2,7.5,8.2H514.3z M331.7,541.5h175.7v171.4H331.7V541.5z
			 M861,376.1l-79.3-80.5v-94.8c0-4.3-4-8.2-8.6-8.2H253c-4.6,0-8.6,3.8-8.6,8.2v94.8l-79.3,80.5c-1.8,1.9-2.1,4.4-2.1,5.7v82.9
			c0,4.8,5.7,5.4,8.1,5.4H855c2.4,0,8.1-0.5,8.1-5.4v-82.9C863.1,380.5,862.8,378,861,376.1z M260.7,209h504.7v89.8H260.7V209z
			 M846.8,453.8H179.3v-69l81.6-77.9h504.4l81.6,77.9V453.8z"/>
	</g>
</g>
</svg>
