<?xml version="1.0" standalone="no"?><!DOCTYPE svg PUBLIC "-//W3C//DTD SVG 1.1//EN" "http://www.w3.org/Graphics/SVG/1.1/DTD/svg11.dtd"><svg t="1539050269845" class="icon" style="" viewBox="0 0 1024 1024" version="1.1" xmlns="http://www.w3.org/2000/svg" p-id="1344" xmlns:xlink="http://www.w3.org/1999/xlink" width="200" height="200"><defs><style type="text/css"></style></defs><path d="M251.4 866.3c-2.3 0-4.6-1-6.3-2.7-1.7-1.7-2.6-4-2.6-6.5l5.1-456.7c0.1-4.9 4.1-9.1 8.9-9.1h513.1c4.8 0 8.9 4.2 8.9 9.2l3.2 456.8c0 2.4-0.9 4.7-2.6 6.4-1.7 1.7-4 2.6-6.3 2.6H251.4z m9-17.9h503.4l-3.1-439.1H265.3l-4.9 439.1z m174.4-304.7c-4.9 0-8.9-4-8.9-9 0-4.9 4-9 8.9-9h156.5c4.9 0 8.9 4 8.9 9 0 4.9-4 9-8.9 9H434.8zM888 364.6c-3.6 0-7.8-2.5-8.7-7.3l-15.8-82.5H162.6l-15.8 82.5c-0.9 4.8-5.1 7.3-8.8 7.3-0.6 0-1.1-0.1-1.7-0.2-4.8-0.9-8-5.6-7.1-10.5l17.2-89.8c0.8-4.2 4.5-7.3 8.8-7.3h715.7c4.3 0 8 3.1 8.8 7.3l17.2 89.8c0.9 4.8-2.3 9.6-7.1 10.5-0.6 0.1-1.2 0.2-1.8 0.2z" p-id="1345"></path></svg>