<?xml version="1.0" encoding="utf-8"?>
<!-- Generator: Adobe Illustrator 20.0.0, SVG Export Plug-In . SVG Version: 6.00 Build 0)  -->
<svg version="1.1" id="图层_1" xmlns="http://www.w3.org/2000/svg" xmlns:xlink="http://www.w3.org/1999/xlink" x="0px" y="0px"
	 viewBox="0 0 1024 1024" style="enable-background:new 0 0 1024 1024;" xml:space="preserve">
<path d="M264.5,838.6c-4.5,0-8.1-3.6-8.1-8V226c0-5.4,4.7-10.9,8.1-10.9H332c4.5,0,8.1,3.6,8.1,8c0,4.4-3.6,8-8.1,8h-59.4v591.5
	h493.3V231.1h-59.4c-4.5,0-8.1-3.6-8.1-8c0-4.4,3.6-8,8.1-8h67.5c3.4,0,8.1,5.5,8.1,10.9v604.6c0,4.4-3.6,8-8.1,8H264.5z
	 M379.6,574.8c-4.5,0-8.1-3.6-8.1-8c0-4.4,3.6-8,8.1-8h287.3c4.5,0,8.1,3.6,8.1,8c0,4.4-3.6,8-8.1,8H379.6z M379.6,430.9
	c-4.5,0-8.1-3.6-8.1-8s3.6-8,8.1-8h287.3c4.5,0,8.1,3.6,8.1,8s-3.6,8-8.1,8H379.6z M620.9,271c-3.5,0-6.3-2.8-6.3-6.2v-77.2
	c0-3.4,2.8-6.2,6.3-6.2c3.4,0,6.3,2.8,6.3,6.2v77.2C627.1,268.2,624.3,271,620.9,271z M425.6,271c-3.4,0-6.3-2.8-6.3-6.2v-77.2
	c0-3.4,2.8-6.2,6.3-6.2c3.5,0,6.3,2.8,6.3,6.2v77.2C431.8,268.2,429,271,425.6,271z M498.7,224c-0.7,0-1.4-0.1-2-0.2
	c0.6-0.1-4.5,10.2-3.8,10.2h52.6c0.7,0,3.7-10.3,4.3-10.2c-0.6,0.1-1.2,0.2-2,0.2H498.7z"/>
</svg>
