<?xml version="1.0" encoding="utf-8"?>
<!-- Generator: Adobe Illustrator 20.0.0, SVG Export Plug-In . SVG Version: 6.00 Build 0)  -->
<svg version="1.1" id="图层_1" xmlns="http://www.w3.org/2000/svg" xmlns:xlink="http://www.w3.org/1999/xlink" x="0px" y="0px"
	 viewBox="0 0 1024 1024" style="enable-background:new 0 0 1024 1024;" xml:space="preserve">
<path d="M251.4,866.3c-2.3,0-4.6-1-6.3-2.7c-1.7-1.7-2.6-4-2.6-6.5l5.1-456.7c0.1-4.9,4.1-9.1,8.9-9.1h513.1c4.8,0,8.9,4.2,8.9,9.2
	l3.2,456.8c0,2.4-0.9,4.7-2.6,6.4c-1.7,1.7-4,2.6-6.3,2.6H251.4z M260.4,848.4h503.4l-3.1-439.1H265.3L260.4,848.4z M434.8,543.7
	c-4.9,0-8.9-4-8.9-9c0-4.9,4-9,8.9-9h156.5c4.9,0,8.9,4,8.9,9c0,4.9-4,9-8.9,9H434.8z M888,364.6c-3.6,0-7.8-2.5-8.7-7.3l-15.8-82.5
	H162.6l-15.8,82.5c-0.9,4.8-5.1,7.3-8.8,7.3c-0.6,0-1.1-0.1-1.7-0.2c-4.8-0.9-8-5.6-7.1-10.5l17.2-89.8c0.8-4.2,4.5-7.3,8.8-7.3
	h715.7c4.3,0,8,3.1,8.8,7.3l17.2,89.8c0.9,4.8-2.3,9.6-7.1,10.5C889.2,364.5,888.6,364.6,888,364.6z"/>
</svg>
