<?xml version="1.0" standalone="no"?><!DOCTYPE svg PUBLIC "-//W3C//DTD SVG 1.1//EN" "http://www.w3.org/Graphics/SVG/1.1/DTD/svg11.dtd"><svg t="1539050275706" class="icon" style="" viewBox="0 0 1024 1024" version="1.1" xmlns="http://www.w3.org/2000/svg" p-id="1465" xmlns:xlink="http://www.w3.org/1999/xlink" width="200" height="200"><defs><style type="text/css"></style></defs><path d="M806.1 519.8c-4.5 0-8.1 3.7-8.1 8.2v284.9H228.1v-285c0-4.5-3.6-8.2-8.1-8.2s-8.1 3.7-8.1 8.2v293c0 4.3 4.1 8.2 8.8 8.2h585.5c4.5 0 8.2-3.7 8.2-8.2v-293c-0.1-4.5-3.8-8.1-8.3-8.1zM514.3 729.1c3.9 0 7-3.7 7-8.2V533.3c0-4.3-3.5-8.2-7.5-8.2h-189c-3.9 0-7 3.7-7 8.2V721c0 4.3 3.5 8.2 7.5 8.2h189zM331.7 541.5h175.7v171.4H331.7V541.5zM861 376.1l-79.3-80.5v-94.8c0-4.3-4-8.2-8.6-8.2H253c-4.6 0-8.6 3.8-8.6 8.2v94.8l-79.3 80.5c-1.8 1.9-2.1 4.4-2.1 5.7v82.9c0 4.8 5.7 5.4 8.1 5.4H855c2.4 0 8.1-0.5 8.1-5.4v-82.9c0-1.3-0.3-3.8-2.1-5.7zM260.7 209h504.7v89.8H260.7V209z m586.1 244.8H179.3v-69l81.6-77.9h504.4l81.6 77.9v69z" p-id="1466"></path></svg>