<?xml version="1.0" encoding="utf-8"?>
<!-- Generator: Adobe Illustrator 20.0.0, SVG Export Plug-In . SVG Version: 6.00 Build 0)  -->
<svg version="1.1" id="图层_1" xmlns="http://www.w3.org/2000/svg" xmlns:xlink="http://www.w3.org/1999/xlink" x="0px" y="0px"
	 viewBox="0 0 1024 1024" style="enable-background:new 0 0 1024 1024;" xml:space="preserve">
<path d="M267.9,860.5c-4.5,0-8.2-3.8-8.2-8.4V178.8c0-4.6,3.7-8.4,8.2-8.4h494.3c4.5,0,8.2,3.8,8.2,8.4v673.4c0,4.6-3.7,8.4-8.2,8.4
	H267.9z M276.1,843.7h477.8V187.2H276.1V843.7z M607.2,601.8c-1,0-2.2-0.5-2.9-1.2c-0.8-0.8-1.2-1.9-1.2-2.9c0-1.1,0.4-2.2,1.1-2.9
	c0.4-0.4,1.4-0.9,3-0.9c1.6,0,2.6,0.5,2.9,0.8c0.7,0.7,1.2,1.9,1.2,3c0,1.1-0.5,2.2-1.2,2.9C609.5,601.3,608.3,601.8,607.2,601.8z
	 M407.7,599.6c-2.3,0-4.1-1.9-4.1-4.2c0-2.3,1.8-4.2,4.1-4.2h97.4c2.3,0,4.1,1.9,4.1,4.2c0,2.3-1.8,4.2-4.1,4.2H407.7z M412.3,464.9
	c-2.3,0-4.1-1.9-4.1-4.2c0-2.3,1.9-4.2,4.1-4.2h196.1c2.3,0,4.1,1.9,4.1,4.2c0,2.3-1.8,4.2-4.1,4.2H412.3z M412.3,338.7
	c-2.3,0-4.1-1.9-4.1-4.2c0-2.3,1.9-4.2,4.1-4.2h196.1c2.3,0,4.1,1.9,4.1,4.2c0,2.3-1.8,4.2-4.1,4.2H412.3z"/>
</svg>
